# WaveFront *.obj file (generated by Autodesk ATF)

mtllib test_support.mtl

g Corps1

v -7.500000 25.000000 -20.000000
v 18.000000 25.000000 -20.000000
v 18.000000 0.000000 -20.000000
v -7.500000 0.000000 -20.000000
v 0.000000 10.000000 -6.000000
v 0.000000 0.000000 -6.000000
v 18.000000 0.000000 -6.000000
v 18.000000 10.000000 -6.000000
v 0.000000 13.000000 -8.000000
v 18.000000 13.000000 -8.000000
v 0.000000 25.000000 -8.000000
v 18.000000 25.000000 -8.000000
v 0.000000 25.000000 0.000000
v 0.000000 0.000000 0.000000
v -7.500000 0.000000 5.000000
v -7.500000 25.000000 5.000000
v 16.000000 7.000000 5.000000
v 16.000000 7.000000 0.000000
v 36.000000 7.000000 0.000000
v 36.000000 7.000000 5.000000
v 36.000000 25.000000 5.000000
v 36.000000 25.000000 0.000000
v 16.000000 0.000000 5.000000
v 16.000000 0.000000 0.000000
vt 0.375000 1.250000 0.000000
vt -2.175000 1.250000 0.000000
vt 0.375000 -1.250000 0.000000
vt -2.175000 -1.250000 0.000000
vt -0.000000 0.000000 0.000000
vt 1.000000 0.000000 0.000000
vt -0.000000 1.800000 0.000000
vt 1.000000 1.800000 0.000000
vt 0.000000 0.000000 0.000000
vt 0.360555 0.000000 0.000000
vt 0.000000 1.800000 0.000000
vt 0.360555 1.800000 0.000000
vt 0.000000 0.000000 0.000000
vt 1.200000 0.000000 0.000000
vt 0.000000 1.800000 0.000000
vt 1.200000 1.800000 0.000000
vt -0.550000 -0.250000 0.000000
vt -0.550000 -1.250000 0.000000
vt -0.350000 0.050000 0.000000
vt 0.850000 -1.250000 0.000000
vt 0.850000 1.250000 0.000000
vt -0.350000 1.250000 0.000000
vt 1.200000 0.800000 0.000000
vt 0.000000 0.800000 0.000000
vt 1.500000 0.600000 0.000000
vt -0.000000 0.000000 0.000000
vt 2.500000 0.000000 0.000000
vt 2.500000 0.600000 0.000000
vt 0.500000 -2.500000 0.000000
vt 0.500000 0.000000 0.000000
vt -2.000000 -2.500000 0.000000
vt -2.000000 0.000000 0.000000
vt -0.000000 0.000000 0.000000
vt 0.500000 0.000000 0.000000
vt -0.000000 2.000000 0.000000
vt 0.500000 2.000000 0.000000
vt -0.250000 -0.900000 0.000000
vt 0.250000 -0.900000 0.000000
vt -0.250000 0.900000 0.000000
vt 0.250000 0.900000 0.000000
vt -0.200000 -2.000000 0.000000
vt 2.350000 -2.000000 0.000000
vt 1.600000 -0.800000 0.000000
vt 2.350000 0.500000 0.000000
vt 1.600000 0.000000 0.000000
vt -2.000000 0.500000 0.000000
vt -2.000000 0.000000 0.000000
vt -0.200000 -0.800000 0.000000
vt 0.700000 0.500000 0.000000
vt 0.000000 0.500000 0.000000
vt 0.700000 0.000000 0.000000
vt 0.000000 0.000000 0.000000
vt 1.600000 0.000000 0.000000
vt 1.600000 0.500000 0.000000
vt 0.000000 0.000000 0.000000
vt -0.750000 0.500000 0.000000
vt 0.000000 -0.600000 0.000000
vt -0.750000 -2.000000 0.000000
vt 1.800000 -2.000000 0.000000
vt 1.800000 -0.600000 0.000000
vt 0.800000 -1.250000 0.000000
vt 0.800000 -0.550000 0.000000
vt -1.550000 -1.250000 0.000000
vt -1.550000 1.250000 0.000000
vt 2.800000 1.250000 0.000000
vt 2.800000 -0.550000 0.000000
vt -0.800000 -1.250000 0.000000
vt 0.800000 -1.250000 0.000000
vt -0.800000 -0.550000 0.000000
vt 0.800000 1.250000 0.000000
vt -2.800000 1.250000 0.000000
vt -2.800000 -0.550000 0.000000
vn 0.000000 0.000000 -0.100000
vn 0.000000 0.000000 -0.100000
vn 0.000000 0.000000 -0.100000
vn 0.000000 0.000000 -0.100000
vn 0.000000 0.000000 0.100000
vn 0.000000 0.000000 0.100000
vn 0.000000 0.000000 0.100000
vn 0.000000 0.000000 0.100000
vn 0.000000 0.055470 0.083205
vn 0.000000 0.055470 0.083205
vn 0.000000 0.055470 0.083205
vn 0.000000 0.055470 0.083205
vn 0.000000 0.000000 0.100000
vn 0.000000 0.000000 0.100000
vn 0.000000 0.000000 0.100000
vn 0.000000 0.000000 0.100000
vn 0.100000 0.000000 0.000000
vn 0.100000 0.000000 0.000000
vn 0.100000 0.000000 0.000000
vn 0.100000 0.000000 0.000000
vn 0.100000 0.000000 0.000000
vn 0.100000 0.000000 0.000000
vn 0.100000 -0.000000 0.000000
vn 0.100000 -0.000000 0.000000
vn 0.100000 -0.000000 0.000000
vn 0.100000 -0.000000 0.000000
vn 0.100000 -0.000000 0.000000
vn 0.100000 -0.000000 0.000000
vn -0.100000 0.000000 0.000000
vn -0.100000 0.000000 0.000000
vn -0.100000 0.000000 0.000000
vn -0.100000 0.000000 0.000000
vn 0.000000 -0.100000 0.000000
vn 0.000000 -0.100000 0.000000
vn 0.000000 -0.100000 0.000000
vn 0.000000 -0.100000 0.000000
vn 0.100000 0.000000 0.000000
vn 0.100000 0.000000 0.000000
vn 0.100000 0.000000 0.000000
vn 0.100000 0.000000 0.000000
vn 0.000000 0.100000 0.000000
vn 0.000000 0.100000 0.000000
vn 0.000000 0.100000 0.000000
vn 0.000000 0.100000 0.000000
vn 0.000000 0.100000 0.000000
vn 0.000000 0.100000 0.000000
vn 0.000000 0.100000 0.000000
vn 0.000000 0.100000 0.000000
vn 0.100000 0.000000 0.000000
vn 0.100000 0.000000 0.000000
vn 0.100000 0.000000 0.000000
vn 0.100000 0.000000 0.000000
vn 0.000000 -0.100000 0.000000
vn 0.000000 -0.100000 0.000000
vn 0.000000 -0.100000 0.000000
vn 0.000000 -0.100000 0.000000
vn 0.000000 -0.100000 0.000000
vn 0.000000 -0.100000 0.000000
vn 0.000000 -0.100000 0.000000
vn 0.000000 -0.100000 0.000000
vn 0.000000 0.000000 0.100000
vn 0.000000 0.000000 0.100000
vn 0.000000 0.000000 0.100000
vn 0.000000 0.000000 0.100000
vn 0.000000 0.000000 0.100000
vn 0.000000 0.000000 0.100000
vn 0.000000 0.000000 -0.100000
vn 0.000000 0.000000 -0.100000
vn 0.000000 0.000000 -0.100000
vn 0.000000 0.000000 -0.100000
vn 0.000000 0.000000 -0.100000
vn 0.000000 0.000000 -0.100000
usemtl Acier_-_Satiné
f 1/1/1 2/2/2 4/3/3
f 4/3/3 2/2/2 3/4/4
f 5/5/5 6/6/6 8/7/7
f 8/7/7 6/6/6 7/8/8
f 9/9/9 5/10/10 10/11/11
f 10/11/11 5/10/10 8/12/12
f 11/13/13 9/14/14 12/15/15
f 12/15/15 9/14/14 10/16/16
f 8/17/17 7/18/18 10/19/19
f 10/19/19 7/18/18 3/20/20
f 10/19/19 3/20/20 2/21/21
f 2/21/21 12/22/22 10/19/19
f 9/23/23 11/24/24 5/25/25
f 5/25/25 11/24/24 13/26/26
f 5/25/25 13/26/26 14/27/27
f 14/27/27 6/28/28 5/25/25
f 15/29/29 16/30/30 4/31/31
f 4/31/31 16/30/30 1/32/32
f 17/33/33 18/34/34 20/35/35
f 20/35/35 18/34/34 19/36/36
f 20/37/37 19/38/38 21/39/39
f 21/39/39 19/38/38 22/40/40
f 2/41/41 1/42/42 11/43/43
f 11/43/43 1/42/42 16/44/44
f 11/43/43 16/44/44 13/45/45
f 13/45/45 16/44/44 21/46/46
f 13/45/45 21/46/46 22/47/47
f 11/43/43 12/48/48 2/41/41
f 17/49/49 23/50/50 18/51/51
f 18/51/51 23/50/50 24/52/52
f 24/53/53 23/54/54 14/55/55
f 14/55/55 23/54/54 15/56/56
f 14/55/55 15/56/56 6/57/57
f 6/57/57 15/56/56 4/58/58
f 6/57/57 4/58/58 3/59/59
f 3/59/59 7/60/60 6/57/57
f 23/61/61 17/62/62 15/63/63
f 15/63/63 17/62/62 16/64/64
f 16/64/64 17/62/62 21/65/65
f 21/65/65 17/62/62 20/66/66
f 24/67/67 14/68/68 18/69/69
f 18/69/69 14/68/68 13/70/70
f 18/69/69 13/70/70 22/71/71
f 22/71/71 19/72/72 18/69/69
# 24 vertices
# 72 texture params
# 72 normals
# 44 facets

# 1 groups
